<mxfile host="app.diagrams.net" modified="2023-10-20T03:24:52.155Z" agent="Mozilla/5.0 (Macintosh; Intel Mac OS X 10_15_7) AppleWebKit/537.36 (KHTML, like Gecko) Chrome/118.0.0.0 Safari/537.36 Edg/118.0.2088.46" etag="A-l0fOecNfOxL7cidWZ8" version="22.0.5" type="device">
  <diagram name="第 1 页" id="Gtit3rpH7SSGUtAuY61A">
    <mxGraphModel dx="2074" dy="1188" grid="1" gridSize="10" guides="1" tooltips="1" connect="1" arrows="1" fold="1" page="1" pageScale="1" pageWidth="827" pageHeight="1169" math="0" shadow="0">
      <root>
        <mxCell id="0" />
        <mxCell id="1" parent="0" />
        <mxCell id="MEuKXHh1rBBYqSsWhMJD-1" value="Rule" style="swimlane;fontStyle=1;align=center;verticalAlign=top;childLayout=stackLayout;horizontal=1;startSize=26;horizontalStack=0;resizeParent=1;resizeParentMax=0;resizeLast=0;collapsible=1;marginBottom=0;whiteSpace=wrap;html=1;fillColor=#dae8fc;strokeColor=#6c8ebf;" vertex="1" parent="1">
          <mxGeometry x="770" y="100" width="490" height="138" as="geometry" />
        </mxCell>
        <mxCell id="MEuKXHh1rBBYqSsWhMJD-2" value="+&amp;nbsp;type&lt;span style=&quot;background-color: initial;&quot;&gt;:&amp;nbsp;&lt;/span&gt;RuleType" style="text;strokeColor=none;fillColor=none;align=left;verticalAlign=top;spacingLeft=4;spacingRight=4;overflow=hidden;rotatable=0;points=[[0,0.5],[1,0.5]];portConstraint=eastwest;whiteSpace=wrap;html=1;" vertex="1" parent="MEuKXHh1rBBYqSsWhMJD-1">
          <mxGeometry y="26" width="490" height="26" as="geometry" />
        </mxCell>
        <mxCell id="MEuKXHh1rBBYqSsWhMJD-5" value="+&amp;nbsp;pattern&lt;span style=&quot;background-color: initial;&quot;&gt;:&amp;nbsp;Pattern&lt;/span&gt;" style="text;strokeColor=#d79b00;fillColor=#ffe6cc;align=left;verticalAlign=top;spacingLeft=4;spacingRight=4;overflow=hidden;rotatable=0;points=[[0,0.5],[1,0.5]];portConstraint=eastwest;whiteSpace=wrap;html=1;" vertex="1" parent="MEuKXHh1rBBYqSsWhMJD-1">
          <mxGeometry y="52" width="490" height="26" as="geometry" />
        </mxCell>
        <mxCell id="MEuKXHh1rBBYqSsWhMJD-3" value="" style="line;strokeWidth=1;fillColor=none;align=left;verticalAlign=middle;spacingTop=-1;spacingLeft=3;spacingRight=3;rotatable=0;labelPosition=right;points=[];portConstraint=eastwest;strokeColor=inherit;" vertex="1" parent="MEuKXHh1rBBYqSsWhMJD-1">
          <mxGeometry y="78" width="490" height="8" as="geometry" />
        </mxCell>
        <mxCell id="MEuKXHh1rBBYqSsWhMJD-4" value="+ boolean &lt;b&gt;check&lt;/b&gt;(foptExpression, optimizerContext)" style="text;strokeColor=none;fillColor=none;align=left;verticalAlign=top;spacingLeft=4;spacingRight=4;overflow=hidden;rotatable=0;points=[[0,0.5],[1,0.5]];portConstraint=eastwest;whiteSpace=wrap;html=1;" vertex="1" parent="MEuKXHh1rBBYqSsWhMJD-1">
          <mxGeometry y="86" width="490" height="26" as="geometry" />
        </mxCell>
        <mxCell id="MEuKXHh1rBBYqSsWhMJD-12" value="&lt;b&gt;+ &lt;font color=&quot;#ff0000&quot;&gt;abstract&lt;/font&gt; &lt;font color=&quot;#3333ff&quot;&gt;List&amp;lt;OptExpression&amp;gt;&amp;nbsp;&lt;span style=&quot;background-color: initial;&quot;&gt;&amp;nbsp;&lt;/span&gt;transform&lt;span style=&quot;background-color: initial;&quot;&gt;(inputOptExpression, optimizerContext)&lt;/span&gt;&lt;/font&gt;&lt;/b&gt;" style="text;strokeColor=none;fillColor=none;align=left;verticalAlign=top;spacingLeft=4;spacingRight=4;overflow=hidden;rotatable=0;points=[[0,0.5],[1,0.5]];portConstraint=eastwest;whiteSpace=wrap;html=1;" vertex="1" parent="MEuKXHh1rBBYqSsWhMJD-1">
          <mxGeometry y="112" width="490" height="26" as="geometry" />
        </mxCell>
        <mxCell id="MEuKXHh1rBBYqSsWhMJD-6" value="Pattern" style="swimlane;fontStyle=1;align=center;verticalAlign=top;childLayout=stackLayout;horizontal=1;startSize=26;horizontalStack=0;resizeParent=1;resizeParentMax=0;resizeLast=0;collapsible=1;marginBottom=0;whiteSpace=wrap;html=1;fillColor=#f8cecc;strokeColor=#b85450;" vertex="1" parent="1">
          <mxGeometry x="380" y="220" width="280" height="112" as="geometry" />
        </mxCell>
        <mxCell id="MEuKXHh1rBBYqSsWhMJD-7" value="+&amp;nbsp;opType&lt;span style=&quot;background-color: initial;&quot;&gt;:&amp;nbsp;&lt;/span&gt;&lt;span style=&quot;background-color: initial;&quot;&gt;OperatorType&lt;/span&gt;" style="text;strokeColor=#A50040;fillColor=#d80073;align=left;verticalAlign=top;spacingLeft=4;spacingRight=4;overflow=hidden;rotatable=0;points=[[0,0.5],[1,0.5]];portConstraint=eastwest;whiteSpace=wrap;html=1;fontColor=#ffffff;" vertex="1" parent="MEuKXHh1rBBYqSsWhMJD-6">
          <mxGeometry y="26" width="280" height="26" as="geometry" />
        </mxCell>
        <mxCell id="MEuKXHh1rBBYqSsWhMJD-8" value="+&amp;nbsp;children&lt;span style=&quot;background-color: initial;&quot;&gt;: List&amp;lt;&lt;/span&gt;Pattern&amp;gt;" style="text;align=left;verticalAlign=top;spacingLeft=4;spacingRight=4;overflow=hidden;rotatable=0;points=[[0,0.5],[1,0.5]];portConstraint=eastwest;whiteSpace=wrap;html=1;" vertex="1" parent="MEuKXHh1rBBYqSsWhMJD-6">
          <mxGeometry y="52" width="280" height="26" as="geometry" />
        </mxCell>
        <mxCell id="MEuKXHh1rBBYqSsWhMJD-9" value="" style="line;strokeWidth=1;fillColor=none;align=left;verticalAlign=middle;spacingTop=-1;spacingLeft=3;spacingRight=3;rotatable=0;labelPosition=right;points=[];portConstraint=eastwest;strokeColor=inherit;" vertex="1" parent="MEuKXHh1rBBYqSsWhMJD-6">
          <mxGeometry y="78" width="280" height="8" as="geometry" />
        </mxCell>
        <mxCell id="MEuKXHh1rBBYqSsWhMJD-10" value="+ bool&amp;nbsp;&amp;nbsp;&lt;b&gt;matchWithoutChild&lt;/b&gt;&lt;span style=&quot;background-color: initial;&quot;&gt;(GroupExpression, int)&lt;/span&gt;" style="text;strokeColor=none;fillColor=none;align=left;verticalAlign=top;spacingLeft=4;spacingRight=4;overflow=hidden;rotatable=0;points=[[0,0.5],[1,0.5]];portConstraint=eastwest;whiteSpace=wrap;html=1;" vertex="1" parent="MEuKXHh1rBBYqSsWhMJD-6">
          <mxGeometry y="86" width="280" height="26" as="geometry" />
        </mxCell>
        <mxCell id="MEuKXHh1rBBYqSsWhMJD-14" value="TransformationRule" style="swimlane;fontStyle=1;align=center;verticalAlign=top;childLayout=stackLayout;horizontal=1;startSize=26;horizontalStack=0;resizeParent=1;resizeParentMax=0;resizeLast=0;collapsible=1;marginBottom=0;whiteSpace=wrap;html=1;fillColor=#e1d5e7;strokeColor=#9673a6;" vertex="1" parent="1">
          <mxGeometry x="560" y="498" width="230" height="52" as="geometry" />
        </mxCell>
        <mxCell id="MEuKXHh1rBBYqSsWhMJD-20" value="+ const int promise = 1" style="text;align=left;verticalAlign=top;spacingLeft=4;spacingRight=4;overflow=hidden;rotatable=0;points=[[0,0.5],[1,0.5]];portConstraint=eastwest;whiteSpace=wrap;html=1;" vertex="1" parent="MEuKXHh1rBBYqSsWhMJD-14">
          <mxGeometry y="26" width="230" height="26" as="geometry" />
        </mxCell>
        <mxCell id="MEuKXHh1rBBYqSsWhMJD-23" style="edgeStyle=orthogonalEdgeStyle;rounded=0;orthogonalLoop=1;jettySize=auto;html=1;exitX=0.5;exitY=0;exitDx=0;exitDy=0;entryX=0.5;entryY=1;entryDx=0;entryDy=0;" edge="1" parent="1" source="MEuKXHh1rBBYqSsWhMJD-19" target="MEuKXHh1rBBYqSsWhMJD-1">
          <mxGeometry relative="1" as="geometry" />
        </mxCell>
        <mxCell id="MEuKXHh1rBBYqSsWhMJD-19" value="ImplementationRule" style="swimlane;fontStyle=1;align=center;verticalAlign=top;childLayout=stackLayout;horizontal=1;startSize=26;horizontalStack=0;resizeParent=1;resizeParentMax=0;resizeLast=0;collapsible=1;marginBottom=0;whiteSpace=wrap;html=1;fillColor=#e1d5e7;strokeColor=#9673a6;" vertex="1" parent="1">
          <mxGeometry x="1260" y="498" width="180" height="52" as="geometry" />
        </mxCell>
        <mxCell id="MEuKXHh1rBBYqSsWhMJD-21" value="+ const int promise = 2" style="text;align=left;verticalAlign=top;spacingLeft=4;spacingRight=4;overflow=hidden;rotatable=0;points=[[0,0.5],[1,0.5]];portConstraint=eastwest;whiteSpace=wrap;html=1;" vertex="1" parent="MEuKXHh1rBBYqSsWhMJD-19">
          <mxGeometry y="26" width="180" height="26" as="geometry" />
        </mxCell>
        <mxCell id="MEuKXHh1rBBYqSsWhMJD-22" style="edgeStyle=orthogonalEdgeStyle;rounded=0;orthogonalLoop=1;jettySize=auto;html=1;exitX=0.5;exitY=0;exitDx=0;exitDy=0;entryX=0.456;entryY=0.978;entryDx=0;entryDy=0;entryPerimeter=0;" edge="1" parent="1" source="MEuKXHh1rBBYqSsWhMJD-14" target="MEuKXHh1rBBYqSsWhMJD-12">
          <mxGeometry relative="1" as="geometry" />
        </mxCell>
        <mxCell id="MEuKXHh1rBBYqSsWhMJD-28" value="RuleSet" style="swimlane;fontStyle=1;align=center;verticalAlign=top;childLayout=stackLayout;horizontal=1;startSize=26;horizontalStack=0;resizeParent=1;resizeParentMax=0;resizeLast=0;collapsible=1;marginBottom=0;whiteSpace=wrap;html=1;fillColor=#008a00;fontColor=#ffffff;strokeColor=#005700;" vertex="1" parent="1">
          <mxGeometry x="870" y="460" width="310" height="104" as="geometry" />
        </mxCell>
        <mxCell id="MEuKXHh1rBBYqSsWhMJD-29" value="+&amp;nbsp;REWRITE_RULES&lt;span style=&quot;background-color: initial;&quot;&gt;: Map&amp;lt;RuleSetType, List&amp;lt;Rule&amp;gt;&amp;gt;&lt;/span&gt;" style="text;strokeColor=none;fillColor=none;align=left;verticalAlign=top;spacingLeft=4;spacingRight=4;overflow=hidden;rotatable=0;points=[[0,0.5],[1,0.5]];portConstraint=eastwest;whiteSpace=wrap;html=1;" vertex="1" parent="MEuKXHh1rBBYqSsWhMJD-28">
          <mxGeometry y="26" width="310" height="26" as="geometry" />
        </mxCell>
        <mxCell id="MEuKXHh1rBBYqSsWhMJD-33" value="+&amp;nbsp;transformRules&lt;span style=&quot;background-color: initial;&quot;&gt;: List&amp;lt;Rule&amp;gt;&lt;/span&gt;" style="text;strokeColor=none;fillColor=none;align=left;verticalAlign=top;spacingLeft=4;spacingRight=4;overflow=hidden;rotatable=0;points=[[0,0.5],[1,0.5]];portConstraint=eastwest;whiteSpace=wrap;html=1;" vertex="1" parent="MEuKXHh1rBBYqSsWhMJD-28">
          <mxGeometry y="52" width="310" height="26" as="geometry" />
        </mxCell>
        <mxCell id="MEuKXHh1rBBYqSsWhMJD-32" value="+&amp;nbsp;implementRules&lt;span style=&quot;background-color: initial;&quot;&gt;: List&amp;lt;Rule&amp;gt;&lt;/span&gt;" style="text;strokeColor=none;fillColor=none;align=left;verticalAlign=top;spacingLeft=4;spacingRight=4;overflow=hidden;rotatable=0;points=[[0,0.5],[1,0.5]];portConstraint=eastwest;whiteSpace=wrap;html=1;" vertex="1" parent="MEuKXHh1rBBYqSsWhMJD-28">
          <mxGeometry y="78" width="310" height="26" as="geometry" />
        </mxCell>
        <mxCell id="MEuKXHh1rBBYqSsWhMJD-34" style="edgeStyle=orthogonalEdgeStyle;rounded=0;orthogonalLoop=1;jettySize=auto;html=1;exitX=1;exitY=0.5;exitDx=0;exitDy=0;entryX=0;entryY=0.25;entryDx=0;entryDy=0;dashed=1;" edge="1" parent="1" source="MEuKXHh1rBBYqSsWhMJD-32" target="MEuKXHh1rBBYqSsWhMJD-19">
          <mxGeometry relative="1" as="geometry" />
        </mxCell>
        <mxCell id="MEuKXHh1rBBYqSsWhMJD-36" style="edgeStyle=orthogonalEdgeStyle;rounded=0;orthogonalLoop=1;jettySize=auto;html=1;exitX=0;exitY=0.5;exitDx=0;exitDy=0;entryX=1;entryY=0.5;entryDx=0;entryDy=0;dashed=1;" edge="1" parent="1" source="MEuKXHh1rBBYqSsWhMJD-33" target="MEuKXHh1rBBYqSsWhMJD-14">
          <mxGeometry relative="1" as="geometry" />
        </mxCell>
        <mxCell id="MEuKXHh1rBBYqSsWhMJD-37" value="" style="endArrow=open;html=1;endSize=12;startArrow=diamondThin;startSize=14;startFill=1;edgeStyle=orthogonalEdgeStyle;align=left;verticalAlign=bottom;rounded=1;entryX=0.5;entryY=0;entryDx=0;entryDy=0;exitX=0;exitY=0.5;exitDx=0;exitDy=0;dashed=1;" edge="1" parent="1" source="MEuKXHh1rBBYqSsWhMJD-5" target="MEuKXHh1rBBYqSsWhMJD-6">
          <mxGeometry x="-1" y="3" relative="1" as="geometry">
            <mxPoint x="714" y="168" as="sourcePoint" />
            <mxPoint x="680" y="238" as="targetPoint" />
            <mxPoint as="offset" />
          </mxGeometry>
        </mxCell>
        <mxCell id="MEuKXHh1rBBYqSsWhMJD-38" value="Operator" style="ellipse;whiteSpace=wrap;html=1;" vertex="1" parent="1">
          <mxGeometry x="150" y="220" width="80" height="60" as="geometry" />
        </mxCell>
        <mxCell id="MEuKXHh1rBBYqSsWhMJD-47" value="Operator" style="ellipse;whiteSpace=wrap;html=1;" vertex="1" parent="1">
          <mxGeometry x="90" y="320" width="80" height="60" as="geometry" />
        </mxCell>
        <mxCell id="MEuKXHh1rBBYqSsWhMJD-48" value="Operator" style="ellipse;whiteSpace=wrap;html=1;" vertex="1" parent="1">
          <mxGeometry x="210" y="320" width="80" height="60" as="geometry" />
        </mxCell>
        <mxCell id="MEuKXHh1rBBYqSsWhMJD-51" style="edgeStyle=orthogonalEdgeStyle;rounded=0;orthogonalLoop=1;jettySize=auto;html=1;exitX=0.5;exitY=0;exitDx=0;exitDy=0;entryX=0.418;entryY=0.983;entryDx=0;entryDy=0;entryPerimeter=0;" edge="1" parent="1" source="MEuKXHh1rBBYqSsWhMJD-47" target="MEuKXHh1rBBYqSsWhMJD-38">
          <mxGeometry relative="1" as="geometry" />
        </mxCell>
        <mxCell id="MEuKXHh1rBBYqSsWhMJD-53" style="edgeStyle=orthogonalEdgeStyle;rounded=0;orthogonalLoop=1;jettySize=auto;html=1;exitX=0.5;exitY=0;exitDx=0;exitDy=0;entryX=0.571;entryY=0.985;entryDx=0;entryDy=0;entryPerimeter=0;" edge="1" parent="1" source="MEuKXHh1rBBYqSsWhMJD-48" target="MEuKXHh1rBBYqSsWhMJD-38">
          <mxGeometry relative="1" as="geometry" />
        </mxCell>
        <mxCell id="MEuKXHh1rBBYqSsWhMJD-55" value="" style="endArrow=classic;html=1;rounded=0;dashed=1;" edge="1" parent="1">
          <mxGeometry width="50" height="50" relative="1" as="geometry">
            <mxPoint x="370" y="260" as="sourcePoint" />
            <mxPoint x="240" y="250" as="targetPoint" />
          </mxGeometry>
        </mxCell>
        <mxCell id="MEuKXHh1rBBYqSsWhMJD-57" value="" style="endArrow=classic;html=1;rounded=0;dashed=1;" edge="1" parent="1">
          <mxGeometry width="50" height="50" relative="1" as="geometry">
            <mxPoint x="370" y="290" as="sourcePoint" />
            <mxPoint x="300" y="330" as="targetPoint" />
          </mxGeometry>
        </mxCell>
        <mxCell id="MEuKXHh1rBBYqSsWhMJD-96" value="&lt;span style=&quot;background-color: initial;&quot;&gt;JoinAssociativityRule&lt;/span&gt;" style="html=1;whiteSpace=wrap;align=center;fillColor=#f5f5f5;fontColor=#333333;strokeColor=#666666;" vertex="1" parent="1">
          <mxGeometry x="390" y="610" width="120" height="30" as="geometry" />
        </mxCell>
        <mxCell id="MEuKXHh1rBBYqSsWhMJD-98" style="edgeStyle=orthogonalEdgeStyle;rounded=0;orthogonalLoop=1;jettySize=auto;html=1;exitX=0.5;exitY=0;exitDx=0;exitDy=0;entryX=0.306;entryY=0.985;entryDx=0;entryDy=0;entryPerimeter=0;" edge="1" parent="1" source="MEuKXHh1rBBYqSsWhMJD-96" target="MEuKXHh1rBBYqSsWhMJD-20">
          <mxGeometry relative="1" as="geometry">
            <Array as="points">
              <mxPoint x="450" y="570" />
              <mxPoint x="630" y="570" />
            </Array>
          </mxGeometry>
        </mxCell>
        <mxCell id="MEuKXHh1rBBYqSsWhMJD-102" style="edgeStyle=orthogonalEdgeStyle;rounded=0;orthogonalLoop=1;jettySize=auto;html=1;entryX=0.377;entryY=1.009;entryDx=0;entryDy=0;entryPerimeter=0;" edge="1" parent="1" source="MEuKXHh1rBBYqSsWhMJD-105" target="MEuKXHh1rBBYqSsWhMJD-20">
          <mxGeometry relative="1" as="geometry">
            <mxPoint x="505.0000000000002" y="610" as="sourcePoint" />
          </mxGeometry>
        </mxCell>
        <mxCell id="MEuKXHh1rBBYqSsWhMJD-103" style="edgeStyle=orthogonalEdgeStyle;rounded=0;orthogonalLoop=1;jettySize=auto;html=1;exitX=0.5;exitY=0;exitDx=0;exitDy=0;entryX=0.435;entryY=0.991;entryDx=0;entryDy=0;entryPerimeter=0;" edge="1" parent="1" source="MEuKXHh1rBBYqSsWhMJD-106" target="MEuKXHh1rBBYqSsWhMJD-20">
          <mxGeometry relative="1" as="geometry">
            <mxPoint x="715" y="610" as="sourcePoint" />
          </mxGeometry>
        </mxCell>
        <mxCell id="MEuKXHh1rBBYqSsWhMJD-104" style="edgeStyle=orthogonalEdgeStyle;rounded=0;orthogonalLoop=1;jettySize=auto;html=1;exitX=0.545;exitY=0;exitDx=0;exitDy=0;entryX=0.515;entryY=0.995;entryDx=0;entryDy=0;entryPerimeter=0;exitPerimeter=0;" edge="1" parent="1" source="MEuKXHh1rBBYqSsWhMJD-107" target="MEuKXHh1rBBYqSsWhMJD-20">
          <mxGeometry relative="1" as="geometry">
            <mxPoint x="905" y="610" as="sourcePoint" />
            <Array as="points">
              <mxPoint x="830" y="570" />
              <mxPoint x="679" y="570" />
            </Array>
          </mxGeometry>
        </mxCell>
        <mxCell id="MEuKXHh1rBBYqSsWhMJD-105" value="JoinCommutativity&lt;span style=&quot;background-color: initial;&quot;&gt;Rule&lt;/span&gt;" style="html=1;whiteSpace=wrap;align=center;fillColor=#f5f5f5;fontColor=#333333;strokeColor=#666666;" vertex="1" parent="1">
          <mxGeometry x="520" y="610" width="130" height="30" as="geometry" />
        </mxCell>
        <mxCell id="MEuKXHh1rBBYqSsWhMJD-106" value="SemiReorder&lt;span style=&quot;background-color: initial;&quot;&gt;Rule&lt;/span&gt;" style="html=1;whiteSpace=wrap;align=center;fillColor=#f5f5f5;fontColor=#333333;strokeColor=#666666;" vertex="1" parent="1">
          <mxGeometry x="660" y="610" width="100" height="30" as="geometry" />
        </mxCell>
        <mxCell id="MEuKXHh1rBBYqSsWhMJD-107" value="SplitAggregate&lt;span style=&quot;background-color: initial;&quot;&gt;Rule&lt;/span&gt;" style="html=1;whiteSpace=wrap;align=center;fillColor=#f5f5f5;fontColor=#333333;strokeColor=#666666;" vertex="1" parent="1">
          <mxGeometry x="770" y="610" width="110" height="30" as="geometry" />
        </mxCell>
      </root>
    </mxGraphModel>
  </diagram>
</mxfile>
